<svg id="Layer_1" data-name="Layer 1" xmlns="http://www.w3.org/2000/svg" viewBox="0 0 165.96 70.11"><defs><style>.cls-1{fill:#ffc838;}</style></defs><path class="cls-1" d="M264.56,430.07c0,.32,0,.63,0,.94a5.94,5.94,0,0,1-6,5.83H227.62c2,5.36,6.79,7.78,13.83,7.78a38,38,0,0,0,11.86-2.15A5.63,5.63,0,0,1,257,453.13a47.81,47.81,0,0,1-15.49,2.79c-16.44,0-26.88-9.31-26.92-25.83,0-14.25,11.16-25.77,25-25.77S264.56,415.84,264.56,430.07Zm-37.44-4.24H252c-1.63-5.91-6.57-10.21-12.43-10.21S228.75,419.92,227.12,425.83Z" transform="translate(-214.55 -385.92)"/><path class="cls-1" d="M277.55,449.92v-58a6,6,0,0,1,12,0v58a6,6,0,0,1-12,0Z" transform="translate(-214.55 -385.92)"/><path class="cls-1" d="M302.55,430.07a26,26,0,1,1,26,25.85A25.85,25.85,0,0,1,302.55,430.07Zm40,0a14,14,0,1,0-14,14.53A14.23,14.23,0,0,0,342.56,430.09Z" transform="translate(-214.55 -385.92)"/><path class="cls-1" d="M380.51,448.93a7,7,0,1,1-7-7.1A7,7,0,0,1,380.51,448.93Zm-1-37.7v18.6a6,6,0,0,1-12,0v-18.6a6,6,0,0,1,12,0Z" transform="translate(-214.55 -385.92)"/></svg>